<svg width="244" height="211" viewBox="0 0 244 211" fill="none" xmlns="http://www.w3.org/2000/svg">
<g id="backgroubd">
<circle id="Ellipse 5" cx="126.645" cy="114.562" r="95.8982" fill="#F9F7FF"/>
<circle id="Ellipse 4" cx="36.7576" cy="49.8105" r="6.01071" fill="#F9F7FF"/>
<circle id="Ellipse 4_2" cx="80.1987" cy="11.2877" r="11.2018" fill="#F9F7FF"/>
<circle id="Ellipse 3" cx="38.6702" cy="176.309" r="10.6554" fill="#F9F7FF"/>
<circle id="Ellipse 2" cx="229.374" cy="165.927" r="10.6554" fill="#F9F7FF"/>
<circle id="Ellipse 1" cx="208.609" cy="177.949" r="5.19107" fill="#F9F7FF"/>
<path id="Star 1" d="M124.473 30.4325C124.156 30.3651 124.156 29.913 124.473 29.8456L129.263 28.8271C129.379 28.8025 129.469 28.7125 129.494 28.5972L130.525 23.8411C130.594 23.5259 131.043 23.5259 131.112 23.8411L132.143 28.5972C132.168 28.7125 132.258 28.8025 132.374 28.8271L137.163 29.8456C137.48 29.913 137.48 30.3651 137.163 30.4325L132.374 31.4511C132.258 31.4756 132.168 31.5656 132.143 31.6809L131.112 36.437C131.043 36.7522 130.594 36.7522 130.525 36.437L129.494 31.6809C129.469 31.5656 129.379 31.4756 129.263 31.4511L124.473 30.4325Z" fill="#DDD8E8"/>
<path id="Star 2" d="M13.9294 77.4718C14.0517 76.8941 14.8763 76.8942 14.9986 77.4718L16.8252 86.1014C16.8697 86.3117 17.0334 86.4763 17.2435 86.5221L25.7839 88.3826C26.3574 88.5076 26.3574 89.3255 25.7839 89.4504L17.2435 91.311C17.0334 91.3567 16.8697 91.5214 16.8252 91.7317L14.9986 100.361C14.8763 100.939 14.0517 100.939 13.9294 100.361L12.1028 91.7317C12.0583 91.5214 11.8946 91.3567 11.6846 91.311L3.14416 89.4504C2.57067 89.3255 2.57067 88.5076 3.14416 88.3826L11.6846 86.5221C11.8946 86.4763 12.0583 86.3117 12.1028 86.1014L13.9294 77.4718Z" fill="#FF0B71"/>
<path id="Star 3" d="M212.35 104.794C212.472 104.216 213.296 104.216 213.419 104.794L214.484 109.828C214.529 110.039 214.693 110.203 214.903 110.249L219.899 111.338C220.473 111.463 220.473 112.28 219.899 112.405L214.903 113.494C214.693 113.54 214.529 113.704 214.484 113.915L213.419 118.949C213.296 119.527 212.472 119.527 212.35 118.949L211.284 113.915C211.239 113.704 211.076 113.54 210.866 113.494L205.869 112.405C205.296 112.28 205.296 111.463 205.869 111.338L210.866 110.249C211.076 110.203 211.239 110.039 211.284 109.828L212.35 104.794Z" fill="#DDD8E8"/>
<path id="Star 4" d="M234.378 133.049L236.052 140.954L243.844 142.652L236.052 144.349L234.378 152.255L232.705 144.349L224.913 142.652L232.705 140.954L234.378 133.049Z" fill="#FF0B71"/>
</g>
</svg>
