<svg width="74" height="74" viewBox="0 0 74 74" fill="none" xmlns="http://www.w3.org/2000/svg">
<g id="Frame 1000001138">
<g clip-path="url(#clip0_534_13180)">
<rect id="Screen Shot 2022-02-12 at 18.10 2" x="0.945253" y="0.945253" width="72.1095" height="72.1095" rx="36.0547" fill="#F9F7FF" stroke="white" stroke-width="1.89051"/>
<g id="&#215;&#144;&#215;&#149;&#215;&#149;&#215;&#152;&#215;&#168;">
<path id="Ellipse 530" d="M65.2694 39.3844C65.2009 40.8452 64.1469 41.8028 62.4329 42.3867C60.722 42.9696 58.4971 43.1178 56.4413 43.0215C52.4683 42.8352 49.522 39.9812 49.6709 36.8058C49.8197 33.6303 53.02 31.0644 56.9931 31.2506C58.9066 31.3403 61.0248 32.5341 62.6627 34.1828C64.3096 35.8406 65.3424 37.8264 65.2694 39.3844Z" fill="#FFDCE2" stroke="#FF0B71"/>
<path id="Ellipse 527" d="M62.2701 26.2069C62.7937 27.5723 62.2127 28.8724 60.8773 30.0952C59.5442 31.3159 57.5659 32.3447 55.6444 33.0817C51.9307 34.5059 48.0866 33.0746 46.9483 30.1064C45.81 27.1382 47.7112 23.5035 51.4248 22.0793C53.2134 21.3933 55.6327 21.6365 57.7946 22.489C59.9685 23.3463 61.7116 24.7506 62.2701 26.2069Z" fill="#FFDCE2" stroke="#FF0B71"/>
<path id="Ellipse 528" d="M54.0263 21.0077C53.56 24.1523 50.1187 26.3846 46.1843 25.8012C42.2499 25.2177 39.6045 22.0828 40.0708 18.9383C40.1807 18.1972 40.6016 17.4351 41.2804 16.705C41.9569 15.9776 42.8664 15.308 43.8987 14.755C45.9756 13.6427 48.4565 13.0506 50.3825 13.3362C52.2452 13.6124 53.2512 14.659 53.7605 16.0529C54.2841 17.486 54.2801 19.2962 54.0263 21.0077Z" fill="#FFDCE2" stroke="#FF0B71"/>
<path id="Vector 40" d="M7.80414 34.4308C11.0615 33.6493 18.6378 35.0677 18.2418 40.0304C17.8457 44.9931 14.7697 49.158 12.7213 48.5054C10.1608 47.6897 3.7324 35.4078 7.80414 34.4308Z" fill="#FFDCE2" stroke="#FF0B71" stroke-linecap="round" stroke-linejoin="round"/>
<path id="Vector" d="M61.9036 54.4848C64.8856 70.2003 50.4469 76.2833 34.2584 73.8827C18.07 71.482 6.95475 64.5468 12.7051 49.5388C18.8259 33.5639 18.9728 15.8182 43.8337 21.846C56.3086 24.8706 58.9215 38.7693 61.9036 54.4848Z" fill="#FFDCE2" stroke="#FF0B71"/>
<path id="Ellipse 529" d="M41.466 18.5578C40.9946 21.737 37.7764 23.967 34.1988 23.4365C32.4279 23.1739 31.2309 22.3298 30.5235 21.1793C29.8082 20.0159 29.5636 18.4889 29.8097 16.8293C29.9136 16.1286 30.4597 15.3017 31.397 14.4371C32.319 13.5866 33.5547 12.7594 34.9058 12.0492C36.2553 11.34 37.7027 10.7567 39.0392 10.3862C40.3867 10.0126 41.5756 9.86839 42.4267 9.99459C42.846 10.0568 43.1144 10.1745 43.2864 10.3072C43.4515 10.4346 43.5555 10.5966 43.6137 10.8072C43.7405 11.2662 43.6463 11.9393 43.3751 12.8209C43.1782 13.461 42.9108 14.1452 42.6311 14.8609C42.532 15.1143 42.4315 15.3716 42.3319 15.6324C41.9593 16.6083 41.6043 17.6255 41.466 18.5578Z" fill="#FFDCE2" stroke="#FF0B71"/>
<path id="Vector 39" d="M51.2671 63.5568C54.1649 62.5142 53.5182 47.6269 50.4309 46.6216C47.3436 45.6163 41.1152 48.2742 41.3899 50.7982C41.7334 53.9533 47.5985 64.8768 51.2671 63.5568Z" stroke="#FF0B71" stroke-linecap="round" stroke-linejoin="round"/>
<path id="Subtract" fill-rule="evenodd" clip-rule="evenodd" d="M34.7543 40.1652C34.4494 42.2214 33.2721 43.7504 32.1248 43.5802C31.1068 43.4293 30.4544 41.9913 30.5333 40.2327L31.7167 40.0146L30.7457 38.8326C31.187 37.1499 32.2196 35.9843 33.229 36.134C34.3763 36.3041 35.0592 38.109 34.7543 40.1652Z" fill="#FF0B71"/>
<path id="Subtract_2" fill-rule="evenodd" clip-rule="evenodd" d="M27.8567 39.1427C27.5518 41.1989 26.3745 42.7279 25.2272 42.5578C24.2092 42.4068 23.5568 40.9689 23.6357 39.2103L24.8192 38.9922L23.8481 37.81C24.2894 36.1274 25.322 34.9619 26.3314 35.1115C27.4787 35.2817 28.1616 37.0865 27.8567 39.1427Z" fill="#FF0B71"/>
<path id="Vector 38" d="M34.3669 48.0516C34.3669 48.0516 32.3433 49.4037 27.6607 48.7093C22.9781 48.0149 21.434 46.1338 21.434 46.1338" stroke="#FF0B71" stroke-linecap="round" stroke-linejoin="round"/>
</g>
</g>
<rect x="1" y="1" width="72" height="72" rx="36" stroke="white" stroke-width="2"/>
</g>
<defs>
<clipPath id="clip0_534_13180">
<rect width="74" height="74" rx="37" fill="white"/>
</clipPath>
</defs>
</svg>
