<svg width="59" height="21" viewBox="0 0 59 21" fill="none" xmlns="http://www.w3.org/2000/svg">
<path fill-rule="evenodd" clip-rule="evenodd" d="M22.5217 18.3458C21.2595 17.2223 18.7405 17.2223 17.4783 18.3458C15.6232 19.9969 13.1788 21 10.5 21C4.70101 21 0 16.299 0 10.5C0 4.70101 4.70101 0 10.5 0C13.1788 0 15.6232 1.00313 17.4783 2.65423C18.7405 3.77773 21.2595 3.77773 22.5217 2.65423C24.3768 1.00313 26.8212 0 29.5 0C32.1788 0 34.6232 1.00313 36.4783 2.65424C37.7405 3.77773 40.2595 3.77773 41.5217 2.65424C43.3768 1.00313 45.8212 0 48.5 0C54.299 0 59 4.70101 59 10.5C59 16.299 54.299 21 48.5 21C45.8212 21 43.3768 19.9969 41.5217 18.3458C40.2595 17.2223 37.7405 17.2223 36.4783 18.3458C34.6232 19.9969 32.1788 21 29.5 21C26.8212 21 24.3768 19.9969 22.5217 18.3458Z" fill="#FFB1BF"/>
<path d="M59 10.5C59 16.299 54.299 21 48.5 21C42.701 21 38 16.299 38 10.5C38 4.70101 42.701 0 48.5 0C54.299 0 59 4.70101 59 10.5Z" fill="#FF0B71"/>
</svg>
