<svg width="30" height="31" viewBox="0 0 30 31" fill="none" xmlns="http://www.w3.org/2000/svg">
<g id="Facebook Messenger">
<rect x="0.113037" y="0.789062" width="29.5832" height="29.5832" rx="14.7916" fill="url(#paint0_radial_267_4818)"/>
<g id="Group">
<path id="Subtract" fill-rule="evenodd" clip-rule="evenodd" d="M5.02612 15.2834C5.02612 9.77855 9.34059 5.70117 14.9047 5.70117C20.4688 5.70117 24.7833 9.78102 24.7833 15.2859C24.7833 20.7907 20.4688 24.8681 14.9047 24.8681C13.9045 24.8681 12.9463 24.7347 12.0448 24.4877C11.8695 24.4408 11.6818 24.4532 11.5163 24.5273L9.55545 25.3916C9.04176 25.6188 8.46387 25.2533 8.44658 24.6927L8.39225 22.9343C8.38731 22.717 8.28852 22.5145 8.128 22.3713C6.20661 20.6524 5.02612 18.163 5.02612 15.2834ZM11.8742 13.4832L8.9724 18.0866C8.69333 18.5287 9.23665 19.0251 9.65155 18.7089L12.7682 16.343C12.9782 16.1825 13.2696 16.1825 13.482 16.3406L15.7911 18.0718C16.485 18.5904 17.4729 18.4101 17.9347 17.6766L20.839 13.0757C21.1156 12.6336 20.5723 12.1348 20.1574 12.4509L17.0407 14.8168C16.8308 14.9773 16.5394 14.9773 16.327 14.8193L14.0179 13.088C13.3239 12.5694 12.336 12.7497 11.8742 13.4832Z" fill="white"/>
</g>
</g>
<defs>
<radialGradient id="paint0_radial_267_4818" cx="0" cy="0" r="1" gradientUnits="userSpaceOnUse" gradientTransform="translate(5.80779 30.2134) scale(32.2338 32.2309)">
<stop stop-color="#0099FF"/>
<stop offset="0.6098" stop-color="#A033FF"/>
<stop offset="0.9348" stop-color="#FF5280"/>
<stop offset="1" stop-color="#FF7061"/>
</radialGradient>
</defs>
</svg>
