<svg width="21" height="22" viewBox="0 0 21 22" fill="none" xmlns="http://www.w3.org/2000/svg">
<rect x="0.104126" y="0.902832" width="20.8622" height="20.8622" rx="10.4311" fill="white"/>
<path fill-rule="evenodd" clip-rule="evenodd" d="M16.9715 11.4879C16.9715 11.0072 16.9283 10.5449 16.8482 10.1011H10.4625V12.7238H14.1115C13.9543 13.5713 13.4766 14.2894 12.7585 14.7702V16.4714H14.9497C16.2318 15.291 16.9715 13.5528 16.9715 11.4879Z" fill="#4285F4"/>
<path fill-rule="evenodd" clip-rule="evenodd" d="M10.4624 18.1141C12.2931 18.1141 13.8279 17.5069 14.9497 16.4714L12.7585 14.7702C12.1513 15.177 11.3747 15.4174 10.4624 15.4174C8.6965 15.4174 7.20177 14.2247 6.66859 12.6221H4.40338V14.3788C5.51904 16.5947 7.81199 18.1141 10.4624 18.1141Z" fill="#34A853"/>
<path fill-rule="evenodd" clip-rule="evenodd" d="M6.66851 12.6222C6.53291 12.2154 6.45586 11.7809 6.45586 11.334C6.45586 10.8871 6.53291 10.4526 6.66851 10.0458V8.28906H4.4033C3.94409 9.20439 3.68213 10.2399 3.68213 11.334C3.68213 12.4281 3.94409 13.4636 4.4033 14.3789L6.66851 12.6222Z" fill="#FBBC05"/>
<path fill-rule="evenodd" clip-rule="evenodd" d="M10.4624 7.25039C11.4579 7.25039 12.3517 7.59249 13.0543 8.26435L14.999 6.31965C13.8248 5.22557 12.29 4.55371 10.4624 4.55371C7.81199 4.55371 5.51904 6.0731 4.40338 8.289L6.66859 10.0457C7.20177 8.4431 8.6965 7.25039 10.4624 7.25039Z" fill="#EA4335"/>
</svg>
