<svg width="31" height="30" viewBox="0 0 31 30" fill="none" xmlns="http://www.w3.org/2000/svg">
<g id="instagram (1) 1" clip-path="url(#clip0_439_11487)">
<g id="Clip path group">
<mask id="mask0_439_11487" style="mask-type:luminance" maskUnits="userSpaceOnUse" x="0" y="0" width="31" height="30">
<g id="c">
<path id="Vector" d="M15.5 30C12.5333 30 9.63319 29.1203 7.16645 27.472C4.69972 25.8238 2.77713 23.4811 1.64181 20.7403C0.506499 17.9994 0.209449 14.9834 0.788227 12.0737C1.36701 9.16394 2.79562 6.49119 4.8934 4.3934C6.99119 2.29562 9.66394 0.867006 12.5737 0.288227C15.4834 -0.290551 18.4994 0.00649922 21.2403 1.14181C23.9811 2.27713 26.3238 4.19972 27.972 6.66645C29.6203 9.13319 30.5 12.0333 30.5 15C30.4957 18.9769 28.9139 22.7897 26.1018 25.6018C23.2897 28.4139 19.4769 29.9957 15.5 30ZM15.5 1.87501C12.9041 1.87501 10.3665 2.64477 8.20815 4.08697C6.04975 5.52916 4.36749 7.57901 3.37409 9.97729C2.38069 12.3756 2.12077 15.0146 2.6272 17.5606C3.13363 20.1066 4.38367 22.4452 6.21923 24.2808C8.05479 26.1163 10.3934 27.3664 12.9394 27.8728C15.4854 28.3792 18.1244 28.1193 20.5227 27.1259C22.921 26.1325 24.9709 24.4503 26.413 22.2919C27.8552 20.1335 28.625 17.5959 28.625 15C28.6213 11.5202 27.2373 8.18395 24.7767 5.72334C22.3161 3.26273 18.9798 1.87873 15.5 1.87501Z" fill="white"/>
</g>
</mask>
<g mask="url(#mask0_439_11487)">
<g id="Group">
<path id="Vector_2" d="M6.94531 63.2812C26.1674 63.2812 41.75 47.6987 41.75 28.4766C41.75 9.25447 26.1674 -6.32812 6.94531 -6.32812C-12.2768 -6.32812 -27.8594 9.25447 -27.8594 28.4766C-27.8594 47.6987 -12.2768 63.2812 6.94531 63.2812Z" fill="url(#paint0_radial_439_11487)"/>
</g>
</g>
</g>
<g id="Clip path group_2">
<mask id="mask1_439_11487" style="mask-type:luminance" maskUnits="userSpaceOnUse" x="11" y="11" width="9" height="8">
<g id="e">
<path id="Vector_3" d="M15.5 11.25C14.7583 11.25 14.0333 11.4699 13.4166 11.882C12.7999 12.294 12.3193 12.8797 12.0355 13.5649C11.7516 14.2502 11.6774 15.0042 11.8221 15.7316C11.9668 16.459 12.3239 17.1272 12.8484 17.6516C13.3728 18.1761 14.041 18.5333 14.7684 18.6779C15.4958 18.8226 16.2498 18.7484 16.9351 18.4645C17.6203 18.1807 18.206 17.7001 18.618 17.0834C19.0301 16.4667 19.25 15.7417 19.25 15C19.25 14.0054 18.8549 13.0516 18.1517 12.3483C17.4484 11.6451 16.4946 11.25 15.5 11.25ZM15.5 16.875C15.1292 16.875 14.7666 16.765 14.4583 16.559C14.15 16.353 13.9096 16.0601 13.7677 15.7175C13.6258 15.3749 13.5887 14.9979 13.661 14.6342C13.7334 14.2705 13.912 13.9364 14.1742 13.6742C14.4364 13.412 14.7705 13.2334 15.1342 13.161C15.4979 13.0887 15.8749 13.1258 16.2175 13.2677C16.5601 13.4096 16.853 13.65 17.059 13.9583C17.265 14.2666 17.375 14.6292 17.375 15C17.375 15.4973 17.1775 15.9742 16.8258 16.3258C16.4742 16.6775 15.9973 16.875 15.5 16.875Z" fill="white"/>
</g>
</mask>
<g mask="url(#mask1_439_11487)">
<g id="Group_2">
<path id="Vector_4" d="M6.94531 63.2812C26.1674 63.2812 41.75 47.6987 41.75 28.4766C41.75 9.25447 26.1674 -6.32812 6.94531 -6.32812C-12.2768 -6.32812 -27.8594 9.25447 -27.8594 28.4766C-27.8594 47.6987 -12.2768 63.2812 6.94531 63.2812Z" fill="url(#paint1_radial_439_11487)"/>
</g>
</g>
</g>
<g id="Clip path group_3">
<mask id="mask2_439_11487" style="mask-type:luminance" maskUnits="userSpaceOnUse" x="7" y="6" width="17" height="18">
<g id="f">
<path id="Vector_5" d="M20.1875 23.4375H10.8125C9.81794 23.4375 8.86411 23.0424 8.16085 22.3391C7.45759 21.6359 7.0625 20.6821 7.0625 19.6875V10.3125C7.0625 9.31794 7.45759 8.36411 8.16085 7.66085C8.86411 6.95759 9.81794 6.5625 10.8125 6.5625H20.1875C21.1821 6.5625 22.1359 6.95759 22.8391 7.66085C23.5424 8.36411 23.9375 9.31794 23.9375 10.3125V19.6875C23.9375 20.6821 23.5424 21.6359 22.8391 22.3391C22.1359 23.0424 21.1821 23.4375 20.1875 23.4375ZM10.8125 8.4375C10.3152 8.4375 9.83831 8.63504 9.48668 8.98668C9.13504 9.33831 8.9375 9.81522 8.9375 10.3125V19.6875C8.9375 20.1848 9.13504 20.6617 9.48668 21.0133C9.83831 21.365 10.3152 21.5625 10.8125 21.5625H20.1875C20.6848 21.5625 21.1617 21.365 21.5133 21.0133C21.865 20.6617 22.0625 20.1848 22.0625 19.6875V10.3125C22.0625 9.81522 21.865 9.33831 21.5133 8.98668C21.1617 8.63504 20.6848 8.4375 20.1875 8.4375H10.8125Z" fill="white"/>
</g>
</mask>
<g mask="url(#mask2_439_11487)">
<g id="Group_3">
<path id="Vector_6" d="M6.94531 63.2812C26.1674 63.2812 41.75 47.6987 41.75 28.4766C41.75 9.25447 26.1674 -6.32812 6.94531 -6.32812C-12.2768 -6.32812 -27.8594 9.25447 -27.8594 28.4766C-27.8594 47.6987 -12.2768 63.2812 6.94531 63.2812Z" fill="url(#paint2_radial_439_11487)"/>
</g>
</g>
</g>
<g id="Clip path group_4">
<mask id="mask3_439_11487" style="mask-type:luminance" maskUnits="userSpaceOnUse" x="18" y="9" width="3" height="3">
<g id="g">
<path id="Vector_7" d="M19.7188 11.9531C20.366 11.9531 20.8906 11.4285 20.8906 10.7812C20.8906 10.134 20.366 9.60938 19.7188 9.60938C19.0715 9.60938 18.5469 10.134 18.5469 10.7812C18.5469 11.4285 19.0715 11.9531 19.7188 11.9531Z" fill="white"/>
</g>
</mask>
<g mask="url(#mask3_439_11487)">
<g id="Group_4">
<path id="Vector_8" d="M3.75068 76.4086C27.779 76.4086 47.2577 56.9298 47.2577 32.9016C47.2577 8.8733 27.779 -10.6055 3.75068 -10.6055C-20.2776 -10.6055 -39.7563 8.8733 -39.7563 32.9016C-39.7563 56.9298 -20.2776 76.4086 3.75068 76.4086Z" fill="url(#paint3_radial_439_11487)"/>
</g>
</g>
</g>
</g>
<defs>
<radialGradient id="paint0_radial_439_11487" cx="0" cy="0" r="1" gradientUnits="userSpaceOnUse" gradientTransform="translate(6.94531 28.4766) scale(34.8047)">
<stop stop-color="#FFD676"/>
<stop offset="0.25" stop-color="#F2A454"/>
<stop offset="0.38" stop-color="#F05C3C"/>
<stop offset="0.7" stop-color="#C22F86"/>
<stop offset="0.96" stop-color="#6666AD"/>
<stop offset="0.99" stop-color="#5C6CB2"/>
</radialGradient>
<radialGradient id="paint1_radial_439_11487" cx="0" cy="0" r="1" gradientUnits="userSpaceOnUse" gradientTransform="translate(6.94531 28.4766) scale(34.8047)">
<stop stop-color="#FFD676"/>
<stop offset="0.25" stop-color="#F2A454"/>
<stop offset="0.38" stop-color="#F05C3C"/>
<stop offset="0.7" stop-color="#C22F86"/>
<stop offset="0.96" stop-color="#6666AD"/>
<stop offset="0.99" stop-color="#5C6CB2"/>
</radialGradient>
<radialGradient id="paint2_radial_439_11487" cx="0" cy="0" r="1" gradientUnits="userSpaceOnUse" gradientTransform="translate(6.94531 28.4766) scale(34.8047)">
<stop stop-color="#FFD676"/>
<stop offset="0.25" stop-color="#F2A454"/>
<stop offset="0.38" stop-color="#F05C3C"/>
<stop offset="0.7" stop-color="#C22F86"/>
<stop offset="0.96" stop-color="#6666AD"/>
<stop offset="0.99" stop-color="#5C6CB2"/>
</radialGradient>
<radialGradient id="paint3_radial_439_11487" cx="0" cy="0" r="1" gradientUnits="userSpaceOnUse" gradientTransform="translate(3.75069 32.9016) scale(43.507)">
<stop stop-color="#FFD676"/>
<stop offset="0.25" stop-color="#F2A454"/>
<stop offset="0.38" stop-color="#F05C3C"/>
<stop offset="0.7" stop-color="#C22F86"/>
<stop offset="0.96" stop-color="#6666AD"/>
<stop offset="0.99" stop-color="#5C6CB2"/>
</radialGradient>
<clipPath id="clip0_439_11487">
<rect width="30" height="30" fill="white" transform="translate(0.5)"/>
</clipPath>
</defs>
</svg>
