<svg width="195" height="187" viewBox="0 0 195 187" fill="none" xmlns="http://www.w3.org/2000/svg">
<g clip-path="url(#clip0_147_1993)">
<path d="M129.116 24.0161C129.116 24.0161 103.911 81.1656 136.101 80.6052C156.577 80.2498 148.867 51.6546 158.518 24.0161" stroke="#FF0B71" stroke-width="13.6689" stroke-linecap="round" stroke-linejoin="round"/>
<path d="M158.504 24.0161L152.312 56.8213C152.312 56.8213 161.361 14.8442 180.525 24.0161C200.604 33.6389 173.513 66.2665 184.188 80.6051" stroke="#FF0B71" stroke-width="13.6689" stroke-linecap="round" stroke-linejoin="round"/>
<path d="M23.4009 24.0161C23.4009 24.0161 -1.51744 80.9606 25.5879 80.7419C43.6581 80.6052 59.5277 24.0161 59.5277 24.0161C59.5277 24.0161 38.1496 80.6052 67.0319 80.7419C80.3044 80.8102 89.4625 63.6832 90.7747 51.0121" stroke="#FF0B71" stroke-width="13.6689" stroke-linecap="round" stroke-linejoin="round"/>
<path d="M119.247 66.4306C119.247 66.4306 113.233 80.7419 101.546 80.7419C77.1745 80.7419 97.7188 24.0161 97.7188 24.0161" stroke="#FF0B71" stroke-width="13.6689" stroke-linecap="round" stroke-linejoin="round"/>
<path d="M134.419 13.0948C138.035 13.0948 140.967 10.1634 140.967 6.54739C140.967 2.93136 138.035 0 134.419 0C130.803 0 127.872 2.93136 127.872 6.54739C127.872 10.1634 130.803 13.0948 134.419 13.0948Z" fill="#FF0B71"/>
<path d="M123.006 122.76C123.006 122.76 97.801 179.91 129.991 179.349C150.467 178.994 142.758 150.399 152.408 122.76" stroke="#FF0B71" stroke-width="13.6689" stroke-linecap="round" stroke-linejoin="round"/>
<path d="M152.408 122.76L146.216 155.565C146.216 155.565 155.265 113.588 174.429 122.76C194.508 132.383 167.417 165.011 178.092 179.349" stroke="#FF0B71" stroke-width="13.6689" stroke-linecap="round" stroke-linejoin="round"/>
<path d="M17.2913 122.76C17.2913 122.76 -7.62706 179.705 19.4783 179.486C37.5485 179.349 53.4181 122.76 53.4181 122.76C53.4181 122.76 32.04 179.349 60.9223 179.486C74.1948 179.554 83.3529 162.427 84.6651 149.756" stroke="#FF0B71" stroke-width="13.6689" stroke-linecap="round" stroke-linejoin="round"/>
<path d="M113.151 165.175C113.151 165.175 107.137 179.486 95.4498 179.486C71.0782 179.486 91.6225 122.76 91.6225 122.76" stroke="#FF0B71" stroke-width="13.6689" stroke-linecap="round" stroke-linejoin="round"/>
<path d="M128.31 111.838C131.926 111.838 134.857 108.907 134.857 105.291C134.857 101.675 131.926 98.7437 128.31 98.7437C124.694 98.7437 121.762 101.675 121.762 105.291C121.762 108.907 124.694 111.838 128.31 111.838Z" fill="#FF0B71"/>
</g>
<defs>
<clipPath id="clip0_147_1993">
<rect width="195" height="186.334" fill="white"/>
</clipPath>
</defs>
</svg>
