<svg width="31" height="31" viewBox="0 0 31 31" fill="none" xmlns="http://www.w3.org/2000/svg">
<g id="WhatsApp">
<rect x="0.969482" y="0.789062" width="29.5832" height="29.5832" rx="14.7916" fill="url(#paint0_linear_267_4816)"/>
<g id="Group">
<path id="Vector" d="M6.78882 24.1859L8.05711 19.5803C7.273 18.2285 6.86166 16.6976 6.86594 15.1325C6.86594 10.2284 10.8765 6.24121 15.7997 6.24121C18.1906 6.24121 20.4359 7.16659 22.1198 8.84677C23.808 10.527 24.7378 12.7615 24.7335 15.1368C24.7335 20.0409 20.7229 24.0281 15.7954 24.0281H15.7911C14.2958 24.0281 12.8261 23.6529 11.5192 22.945L6.78882 24.1859ZM11.7463 21.3373L12.0163 21.4993C13.156 22.1731 14.4629 22.527 15.7954 22.5313H15.7997C19.8917 22.5313 23.2252 19.2179 23.2252 15.1411C23.2252 13.1666 22.454 11.3116 21.0529 9.91288C19.6517 8.51415 17.7836 7.74655 15.7997 7.74655C11.7077 7.74229 8.37419 11.0557 8.37419 15.1325C8.37419 16.527 8.7641 17.8874 9.50966 19.0643L9.68533 19.3458L8.93549 22.0708L11.7463 21.3373Z" fill="white"/>
<path id="Vector_2" d="M7.10156 23.8748L8.32701 19.427C7.5686 18.1264 7.17012 16.6466 7.17012 15.137C7.1744 10.4035 11.0436 6.55273 15.7997 6.55273C18.1092 6.55273 20.273 7.44826 21.9012 9.06874C23.5294 10.6892 24.4249 12.847 24.4249 15.1413C24.4249 19.8748 20.5515 23.7256 15.7997 23.7256H15.7954C14.3514 23.7256 12.9332 23.3631 11.6734 22.6808L7.10156 23.8748Z" fill="url(#paint1_linear_267_4816)"/>
<path id="Vector_3" d="M6.78882 24.1859L8.05711 19.5803C7.273 18.2285 6.86166 16.6976 6.86594 15.1325C6.86594 10.2284 10.8765 6.24121 15.7997 6.24121C18.1906 6.24121 20.4359 7.16659 22.1198 8.84677C23.808 10.527 24.7378 12.7615 24.7335 15.1368C24.7335 20.0409 20.7229 24.0281 15.7954 24.0281H15.7911C14.2958 24.0281 12.8261 23.6529 11.5192 22.945L6.78882 24.1859ZM11.7463 21.3373L12.0163 21.4993C13.156 22.1731 14.4629 22.527 15.7954 22.5313H15.7997C19.8917 22.5313 23.2252 19.2179 23.2252 15.1411C23.2252 13.1666 22.454 11.3116 21.0529 9.91288C19.6517 8.51415 17.7836 7.74655 15.7997 7.74655C11.7077 7.74229 8.37419 11.0557 8.37419 15.1325C8.37419 16.527 8.7641 17.8874 9.50966 19.0643L9.68533 19.3458L8.93549 22.0708L11.7463 21.3373Z" fill="url(#paint2_linear_267_4816)"/>
<path id="Vector_4" fill-rule="evenodd" clip-rule="evenodd" d="M13.5674 11.4135C13.4003 11.0424 13.2246 11.0339 13.0661 11.0297C12.9376 11.0254 12.7876 11.0254 12.6376 11.0254C12.4877 11.0254 12.2477 11.0808 12.042 11.3026C11.8364 11.5243 11.2622 12.0616 11.2622 13.1576C11.2622 14.2493 12.0635 15.3069 12.1749 15.4561C12.2863 15.6054 13.7217 17.921 15.9883 18.8122C17.8736 19.5542 18.2593 19.405 18.6663 19.3666C19.0734 19.3282 19.986 18.8293 20.1746 18.309C20.3588 17.7888 20.3588 17.3453 20.3031 17.2514C20.2474 17.1576 20.0974 17.1022 19.8746 16.9913C19.6518 16.8804 18.5549 16.3431 18.3492 16.2664C18.1436 16.1939 17.9936 16.1555 17.8479 16.3772C17.698 16.599 17.2695 17.0979 17.1409 17.2472C17.0124 17.3964 16.8796 17.4135 16.6567 17.3026C16.4339 17.1917 15.7141 16.9572 14.8614 16.1981C14.1973 15.6096 13.7474 14.8804 13.6188 14.6587C13.4903 14.4369 13.606 14.3175 13.7174 14.2067C13.8159 14.1086 13.9402 13.9465 14.0516 13.8186C14.163 13.6907 14.2016 13.5968 14.2744 13.4476C14.3473 13.2983 14.313 13.1704 14.2573 13.0595C14.2016 12.9529 13.7645 11.8527 13.5674 11.4135Z" fill="white"/>
</g>
</g>
<defs>
<linearGradient id="paint0_linear_267_4816" x1="15.7603" y1="30.3707" x2="15.7603" y2="0.788027" gradientUnits="userSpaceOnUse">
<stop stop-color="#20B038"/>
<stop offset="1" stop-color="#60D66A"/>
</linearGradient>
<linearGradient id="paint1_linear_267_4816" x1="15.7628" y1="23.874" x2="15.7628" y2="6.55213" gradientUnits="userSpaceOnUse">
<stop stop-color="#20B038"/>
<stop offset="1" stop-color="#60D66A"/>
</linearGradient>
<linearGradient id="paint2_linear_267_4816" x1="15.7629" y1="24.1842" x2="15.7629" y2="6.24121" gradientUnits="userSpaceOnUse">
<stop stop-color="#F9F9F9"/>
<stop offset="1" stop-color="white"/>
</linearGradient>
</defs>
</svg>
