<svg width="165" height="58" viewBox="0 0 165 58" fill="none" xmlns="http://www.w3.org/2000/svg">
<g id="&#215;&#156;&#215;&#149;&#215;&#146;&#215;&#149;" clip-path="url(#clip0_267_5439)">
<path id="Vector" d="M164.699 6C164.699 3.03607 162.296 0.633331 159.332 0.633333C156.368 0.633335 153.965 3.03608 153.965 6L164.699 6ZM82.6655 6L88.0321 5.99984C88.032 3.03595 85.6293 0.633301 82.6654 0.633334C79.7015 0.633368 77.2988 3.03607 77.2988 5.99996L82.6655 6ZM11.3667 6.00002C11.3667 3.03609 8.96395 0.633344 6.00002 0.633333C3.03609 0.633323 0.633344 3.03605 0.633333 5.99998L11.3667 6.00002ZM159.332 6C153.965 6 153.965 5.99887 153.965 5.9979C153.965 5.99782 153.965 5.99702 153.965 5.99684C153.965 5.99648 153.965 5.99681 153.965 5.99782C153.965 5.99984 153.965 6.0046 153.965 6.01205C153.965 6.02695 153.965 6.05261 153.965 6.08868C153.964 6.16084 153.963 6.2746 153.961 6.42717C153.955 6.73241 153.945 7.19243 153.924 7.78502C153.882 8.97131 153.796 10.6824 153.625 12.7418C153.279 16.8843 152.594 22.3252 151.251 27.6984C149.888 33.1474 147.951 38.1055 145.335 41.5925C142.833 44.9283 139.973 46.6333 136.332 46.6333V57.3667C144.19 57.3667 149.955 53.3217 153.922 48.0325C157.776 42.8945 160.151 36.3526 161.663 30.3016C163.195 24.1748 163.947 18.1157 164.321 13.6332C164.509 11.3801 164.603 9.49744 164.65 8.16811C164.674 7.50288 164.686 6.97462 164.692 6.60603C164.695 6.42169 164.697 6.27715 164.698 6.17523C164.698 6.12427 164.698 6.08395 164.699 6.05463C164.699 6.03997 164.699 6.02806 164.699 6.01894C164.699 6.01438 164.699 6.01052 164.699 6.00736C164.699 6.00578 164.699 6.00394 164.699 6.00315C164.699 6.00148 164.699 6 159.332 6ZM127.132 24.4001C127.132 31.3079 123.522 37.3813 117.834 41.5316L124.162 50.2017C132.102 44.4068 137.866 35.3273 137.866 24.4001H127.132ZM117.834 41.5316C113.653 44.5834 110.082 46.6333 105.665 46.6333V57.3667C113.734 57.3667 119.71 53.4501 124.162 50.2017L117.834 41.5316ZM105.665 46.6333C102.023 46.6333 99.1635 44.9284 96.6616 41.5925C94.0464 38.1056 92.1089 33.1474 90.7467 27.6984C89.4035 22.3252 88.7181 16.8844 88.3729 12.7419C88.2013 10.6825 88.116 8.97135 88.0736 7.78506C88.0525 7.19247 88.0421 6.73245 88.037 6.42721C88.0345 6.27463 88.0332 6.16088 88.0327 6.08872C88.0324 6.05264 88.0322 6.02698 88.0322 6.01208C88.0322 6.00463 88.0321 5.99988 88.0321 5.99785C88.0321 5.99684 88.0321 5.99651 88.0321 5.99688C88.0321 5.99706 88.0321 5.99785 88.0321 5.99794C88.0321 5.9989 88.0321 6.00004 82.6655 6C77.2988 5.99996 77.2988 6.00145 77.2988 6.00311C77.2988 6.0039 77.2988 6.00575 77.2988 6.00732C77.2988 6.01048 77.2988 6.01434 77.2988 6.01891C77.2988 6.02803 77.2989 6.03994 77.2989 6.0546C77.299 6.08392 77.2993 6.12424 77.2997 6.1752C77.3005 6.27711 77.3021 6.42166 77.3052 6.60599C77.3113 6.97458 77.3234 7.50284 77.3471 8.16807C77.3946 9.4974 77.4889 11.38 77.6767 13.6331C78.0502 18.1156 78.8022 24.1748 80.3338 30.3016C81.8465 36.3526 84.2214 42.8944 88.0749 48.0325C92.0417 53.3216 97.8067 57.3667 105.665 57.3667V46.6333ZM136.332 46.6333C132.709 46.6333 128.107 44.4708 124.205 41.5632L117.792 50.1701C122.345 53.5627 129.25 57.3667 136.332 57.3667V46.6333ZM124.205 41.5632C118.923 37.6283 115.833 31.6645 115.833 24.4001H105.1C105.1 34.9708 109.725 44.1599 117.792 50.1701L124.205 41.5632ZM115.833 24.4001C115.833 17.6066 119.467 15.9666 121.483 15.9666C123.499 15.9667 127.132 17.6067 127.132 24.4001H137.866C137.866 12.7934 130.483 5.23334 121.483 5.23332C112.483 5.23329 105.1 12.7934 105.1 24.4001H115.833ZM82.6655 6C77.2988 6.00016 77.2988 5.99902 77.2988 5.99806C77.2988 5.99797 77.2988 5.99718 77.2988 5.997C77.2988 5.99664 77.2988 5.99696 77.2988 5.99797C77.2988 6 77.2988 6.00475 77.2988 6.0122C77.2987 6.0271 77.2986 6.05276 77.2983 6.08884C77.2977 6.161 77.2965 6.27475 77.2939 6.42733C77.2889 6.73257 77.2785 7.19259 77.2573 7.78517C77.215 8.97146 77.1297 10.6826 76.9582 12.742C76.6131 16.8845 75.9278 22.3253 74.5846 27.6985C73.2225 33.1475 71.2851 38.1056 68.6699 41.5925C66.1681 44.9283 63.3082 46.6333 59.6663 46.6333V57.3667C67.5248 57.3667 73.2898 53.3217 77.2566 48.0325C81.1101 42.8944 83.4849 36.3525 84.9975 30.3015C86.5291 24.1747 87.281 18.1155 87.6544 13.633C87.8421 11.3799 87.9364 9.49728 87.9839 8.16795C88.0076 7.50273 88.0197 6.97447 88.0258 6.60588C88.0289 6.42154 88.0304 6.27699 88.0313 6.17508C88.0317 6.12412 88.0319 6.0838 88.032 6.05448C88.0321 6.03982 88.0321 6.0279 88.0321 6.01878C88.0321 6.01422 88.0321 6.01036 88.0321 6.0072C88.0321 6.00562 88.0321 6.00378 88.0321 6.00299C88.0321 6.00133 88.0321 5.99984 82.6655 6ZM50.4672 24.4001C50.4672 31.3079 46.8564 37.3813 41.1692 41.5316L47.4964 50.2017C55.4371 44.4068 61.2005 35.3273 61.2005 24.4001H50.4672ZM41.1692 41.5316C36.9873 44.5834 33.4166 46.6333 28.9997 46.6333V57.3667C37.0692 57.3667 43.0452 53.4501 47.4964 50.2017L41.1692 41.5316ZM28.9997 46.6333C25.3581 46.6333 22.4981 44.9284 19.9963 41.5925C17.3811 38.1056 15.4436 33.1474 14.0813 27.6984C12.7381 22.3252 12.0527 16.8844 11.7075 12.7418C11.5359 10.6825 11.4505 8.97133 11.4082 7.78504C11.387 7.19245 11.3766 6.73243 11.3715 6.42719C11.369 6.27461 11.3678 6.16086 11.3672 6.0887C11.3669 6.05262 11.3668 6.02696 11.3667 6.01206C11.3667 6.00461 11.3667 5.99986 11.3667 5.99783C11.3667 5.99682 11.3667 5.9965 11.3667 5.99686C11.3667 5.99704 11.3667 5.99783 11.3667 5.99792C11.3667 5.99888 11.3667 6.00002 6 6C0.633333 5.99998 0.633333 6.00147 0.633334 6.00313C0.633335 6.00392 0.633336 6.00576 0.633337 6.00734C0.63334 6.0105 0.633346 6.01436 0.633355 6.01892C0.633372 6.02804 0.633405 6.03996 0.633463 6.05462C0.633579 6.08394 0.633798 6.12425 0.634209 6.17522C0.63503 6.27713 0.63662 6.42167 0.639691 6.60601C0.645833 6.9746 0.657911 7.50286 0.681666 8.16809C0.729137 9.49742 0.823465 11.38 1.01122 13.6332C1.38474 18.1156 2.1368 24.1748 3.66846 30.3016C5.18118 36.3526 7.55608 42.8944 11.4096 48.0325C15.3764 53.3216 21.1414 57.3667 28.9997 57.3667V46.6333ZM59.6663 46.6333C56.0434 46.6333 51.4415 44.4708 47.5393 41.5632L41.1263 50.1701C45.6796 53.5627 52.5846 57.3667 59.6663 57.3667V46.6333ZM47.5393 41.5632C42.2582 37.6283 39.1679 31.6645 39.1679 24.4001H28.4345C28.4345 34.9708 33.06 44.1599 41.1263 50.1701L47.5393 41.5632ZM39.1679 24.4001C39.1679 17.6066 42.8015 15.9666 44.8175 15.9666C46.8336 15.9667 50.4672 17.6067 50.4672 24.4001H61.2005C61.2005 12.7934 53.8178 5.23334 44.8175 5.23332C35.8173 5.23329 28.4345 12.7934 28.4345 24.4001H39.1679Z" fill="#FF0B71"/>
</g>
<defs>
<clipPath id="clip0_267_5439">
<rect width="165" height="58" fill="white"/>
</clipPath>
</defs>
</svg>
