<svg width="70" height="24" viewBox="0 0 70 24" fill="none" xmlns="http://www.w3.org/2000/svg">
<g id="&#215;&#156;&#215;&#149;&#215;&#146;&#215;&#149;" clip-path="url(#clip0_267_4762)">
<path id="Vector" d="M69.0133 2.48291C69.0133 1.25646 68.019 0.26222 66.7926 0.262221C65.5661 0.262221 64.5719 1.25646 64.5719 2.48291L69.0133 2.48291ZM35.0685 2.48291L37.2892 2.48284C37.2891 1.25641 36.2949 0.262207 35.0684 0.262221C33.842 0.262235 32.8478 1.25646 32.8478 2.48289L35.0685 2.48291ZM5.56552 2.48292C5.56553 1.25647 4.57129 0.262225 3.34484 0.262221C2.11839 0.262216 1.12415 1.25645 1.12414 2.4829L5.56552 2.48292ZM66.7926 2.48291C64.5719 2.48291 64.5719 2.48244 64.5719 2.48204C64.5719 2.48201 64.5719 2.48168 64.5719 2.4816C64.5719 2.48145 64.5719 2.48159 64.5719 2.48201C64.5719 2.48284 64.5719 2.48481 64.5719 2.4879C64.5718 2.49406 64.5718 2.50468 64.5717 2.51961C64.5714 2.54946 64.5709 2.59654 64.5699 2.65967C64.5678 2.78598 64.5635 2.97633 64.5547 3.22154C64.5372 3.71242 64.5019 4.42047 64.4308 5.27263C64.288 6.98677 64.0044 9.23815 63.4485 11.4615C62.8848 13.7163 62.0831 15.7679 61.0009 17.2108C59.9656 18.5912 58.7821 19.2967 57.2751 19.2967V23.7381C60.5269 23.7381 62.9125 22.0643 64.554 19.8757C66.1485 17.7496 67.1313 15.0426 67.7573 12.5388C68.3911 10.0035 68.7023 7.49629 68.8569 5.64147C68.9346 4.70914 68.9736 3.93013 68.9933 3.38006C69.0031 3.10479 69.0081 2.8862 69.0106 2.73368C69.0119 2.6574 69.0126 2.59759 69.0129 2.55542C69.0131 2.53433 69.0132 2.51765 69.0132 2.50552C69.0132 2.49945 69.0132 2.49452 69.0133 2.49075C69.0133 2.48886 69.0133 2.48726 69.0133 2.48595C69.0133 2.4853 69.0133 2.48454 69.0133 2.48421C69.0133 2.48352 69.0133 2.48291 66.7926 2.48291ZM53.4686 10.0968C53.4686 12.9551 51.9745 15.4683 49.6212 17.1856L52.2393 20.7733C55.5251 18.3754 57.91 14.6184 57.91 10.0968H53.4686ZM49.6212 17.1856C47.8907 18.4485 46.4132 19.2967 44.5855 19.2967V23.7381C47.9246 23.7381 50.3975 22.1174 52.2393 20.7733L49.6212 17.1856ZM44.5855 19.2967C43.0786 19.2967 41.8952 18.5912 40.86 17.2109C39.7778 15.768 38.9761 13.7163 38.4124 11.4616C37.8566 9.23817 37.573 6.98679 37.4302 5.27265C37.3592 4.42049 37.3239 3.71244 37.3063 3.22155C37.2976 2.97635 37.2933 2.78599 37.2912 2.65969C37.2901 2.59655 37.2896 2.54948 37.2894 2.51962C37.2893 2.50469 37.2892 2.49408 37.2892 2.48791C37.2892 2.48483 37.2892 2.48286 37.2892 2.48202C37.2892 2.4816 37.2892 2.48147 37.2892 2.48162C37.2892 2.48169 37.2892 2.48202 37.2892 2.48206C37.2892 2.48246 37.2892 2.48293 35.0685 2.48291C32.8478 2.48289 32.8478 2.48351 32.8478 2.4842C32.8478 2.48452 32.8478 2.48529 32.8478 2.48594C32.8478 2.48725 32.8478 2.48885 32.8478 2.49073C32.8478 2.49451 32.8478 2.49944 32.8478 2.5055C32.8479 2.51763 32.848 2.53432 32.8481 2.55541C32.8485 2.59758 32.8491 2.65739 32.8504 2.73367C32.853 2.88619 32.858 3.10478 32.8678 3.38004C32.8874 3.93011 32.9265 4.70912 33.0041 5.64145C33.1587 7.49627 33.4699 10.0035 34.1037 12.5387C34.7296 15.0426 35.7123 17.7496 37.3069 19.8757C38.9483 22.0643 41.3338 23.7381 44.5855 23.7381V19.2967ZM57.2751 19.2967C55.776 19.2967 53.8718 18.4018 52.2571 17.1987L49.6034 20.7602C51.4875 22.164 54.3448 23.7381 57.2751 23.7381V19.2967ZM52.2571 17.1987C50.0718 15.5705 48.793 13.1027 48.793 10.0968H44.3517C44.3517 14.4708 46.2656 18.2732 49.6034 20.7602L52.2571 17.1987ZM48.793 10.0968C48.793 7.28565 50.2966 6.60704 51.1308 6.60704C51.965 6.60704 53.4686 7.28569 53.4686 10.0968H57.91C57.91 5.29398 54.855 2.16567 51.1308 2.16566C47.4066 2.16565 44.3517 5.29396 44.3517 10.0968H48.793ZM35.0685 2.48291C32.8478 2.48298 32.8478 2.48251 32.8478 2.48211C32.8478 2.48207 32.8478 2.48174 32.8478 2.48167C32.8478 2.48152 32.8478 2.48165 32.8478 2.48207C32.8478 2.48291 32.8478 2.48488 32.8478 2.48796C32.8477 2.49413 32.8477 2.50474 32.8476 2.51967C32.8473 2.54953 32.8468 2.5966 32.8458 2.65973C32.8437 2.78604 32.8394 2.97639 32.8306 3.2216C32.8131 3.71248 32.7778 4.42054 32.7068 5.27269C32.564 6.98683 32.2805 9.23821 31.7247 11.4616C31.161 13.7164 30.3593 15.768 29.2772 17.2109C28.242 18.5912 27.0586 19.2967 25.5516 19.2967V23.7381C28.8034 23.7381 31.1889 22.0643 32.8303 19.8757C34.4249 17.7496 35.4076 15.0426 36.0335 12.5387C36.6672 10.0035 36.9784 7.49623 37.1329 5.64141C37.2105 4.70908 37.2496 3.93006 37.2692 3.37999C37.279 3.10473 37.284 2.88614 37.2865 2.73362C37.2878 2.65734 37.2885 2.59753 37.2888 2.55536C37.289 2.53427 37.2891 2.51759 37.2891 2.50545C37.2891 2.49939 37.2891 2.49446 37.2892 2.49068C37.2892 2.4888 37.2892 2.4872 37.2892 2.48589C37.2892 2.48524 37.2892 2.48447 37.2892 2.48415C37.2892 2.48346 37.2892 2.48284 35.0685 2.48291ZM21.745 10.0968C21.745 12.9551 20.2509 15.4683 17.8976 17.1856L20.5158 20.7733C23.8016 18.3754 26.1864 14.6184 26.1864 10.0968H21.745ZM17.8976 17.1856C16.1672 18.4485 14.6896 19.2967 12.8619 19.2967V23.7381C16.201 23.7381 18.6739 22.1174 20.5158 20.7733L17.8976 17.1856ZM12.8619 19.2967C11.3551 19.2967 10.1716 18.5912 9.13639 17.2109C8.05425 15.768 7.25251 13.7163 6.68883 11.4616C6.133 9.23817 5.84939 6.98678 5.70655 5.27264C5.63554 4.42048 5.60022 3.71243 5.58269 3.22155C5.57394 2.97634 5.56964 2.78598 5.56754 2.65968C5.56649 2.59654 5.56598 2.54947 5.56574 2.51961C5.56562 2.50469 5.56557 2.49407 5.56554 2.4879C5.56553 2.48482 5.56552 2.48285 5.56552 2.48201C5.56552 2.4816 5.56552 2.48146 5.56552 2.48161C5.56552 2.48168 5.56552 2.48201 5.56552 2.48205C5.56552 2.48245 5.56552 2.48292 3.34483 2.48291C1.12414 2.4829 1.12414 2.48352 1.12414 2.48421C1.12414 2.48453 1.12414 2.4853 1.12415 2.48595C1.12415 2.48726 1.12415 2.48885 1.12415 2.49074C1.12416 2.49451 1.12417 2.49944 1.1242 2.50551C1.12425 2.51764 1.12434 2.53433 1.12451 2.55541C1.12485 2.59759 1.1255 2.6574 1.12677 2.73367C1.12932 2.88619 1.13431 3.10478 1.14414 3.38005C1.16379 3.93012 1.20282 4.70913 1.28051 5.64146C1.43507 7.49628 1.74627 10.0035 2.38006 12.5387C3.00601 15.0426 3.98873 17.7496 5.58327 19.8757C7.22471 22.0643 9.61022 23.7381 12.8619 23.7381V19.2967ZM25.5516 19.2967C24.0524 19.2967 22.1482 18.4018 20.5335 17.1987L17.8799 20.7602C19.764 22.164 22.6212 23.7381 25.5516 23.7381V19.2967ZM20.5335 17.1987C18.3482 15.5705 17.0695 13.1027 17.0695 10.0968H12.6281C12.6281 14.4708 14.5421 18.2732 17.8799 20.7602L20.5335 17.1987ZM17.0695 10.0968C17.0695 7.28566 18.573 6.60704 19.4072 6.60704C20.2415 6.60704 21.745 7.28569 21.745 10.0968H26.1864C26.1864 5.29398 23.1315 2.16567 19.4073 2.16566C15.683 2.16565 12.6281 5.29396 12.6281 10.0968H17.0695Z" fill="#FF0B71"/>
</g>
<defs>
<clipPath id="clip0_267_4762">
<rect width="68.2759" height="24" fill="white" transform="translate(0.862061)"/>
</clipPath>
</defs>
</svg>
