<svg width="165" height="58" viewBox="0 0 165 58" fill="none" xmlns="http://www.w3.org/2000/svg">
<g id="&#215;&#156;&#215;&#149;&#215;&#146;&#215;&#149;" clip-path="url(#clip0_347_5422)">
<path id="Vector" d="M159.332 6C159.332 6 159.332 52 136.332 52C130.979 52 125.226 49.0167 120.998 45.8667M120.998 45.8667C127.812 40.8941 132.499 33.3176 132.499 24.4001C132.499 6 110.466 5.99986 110.466 24.4001C110.466 33.3177 114.324 40.8941 120.998 45.8667ZM120.998 45.8667C116.682 49.0167 111.908 52 105.665 52C82.6651 52 93 6 93 6M44.3328 45.8667C51.1468 40.8941 55.8338 33.3176 55.8338 24.4001C55.8338 6 33.8012 5.99986 33.8012 24.4001C33.8012 33.3177 37.6591 40.8941 44.3328 45.8667ZM44.3328 45.8667C40.0163 49.0167 35.2429 52 28.9997 52C5.99984 52 6 6 6 6M44.3328 45.8667C48.5606 49.0167 54.314 52 59.6663 52C80.649 52 70.5 6 70.5 6" stroke="#FF0B71" stroke-width="10.7333" stroke-linecap="round"/>
</g>
<defs>
<clipPath id="clip0_347_5422">
<rect width="165" height="58" fill="white"/>
</clipPath>
</defs>
</svg>
